<svg xmlns="http://www.w3.org/2000/svg" viewBox="0 0 38 39" width="38" height="39">
	<style>
		tspan { white-space:pre }
	</style>
	<path id="close" fill="#2b2a2c" d="M19 0.48C22.4 0.48 25.55 1.33 28.45 3.04C31.34 4.74 33.64 7.04 35.34 9.93C37.04 12.82 37.89 15.97 37.89 19.38C37.89 22.78 37.04 25.93 35.34 28.82C33.64 31.72 31.34 34.01 28.45 35.71C25.55 37.42 22.4 38.27 19 38.27C15.6 38.27 12.45 37.42 9.55 35.71C6.66 34.01 4.36 31.72 2.66 28.82C0.96 25.93 0.11 22.78 0.11 19.38C0.11 15.97 0.96 12.82 2.66 9.93C4.36 7.04 6.66 4.74 9.55 3.04C12.45 1.33 15.6 0.48 19 0.48ZM28.29 24.33L23.27 19.38L28.29 14.42C28.45 14.22 28.52 14 28.52 13.78C28.52 13.55 28.45 13.33 28.29 13.13L25.25 10.08C25.09 9.93 24.89 9.85 24.64 9.85C24.38 9.85 24.15 9.93 23.95 10.08L19 15.11L14.05 10.08C13.85 9.93 13.63 9.85 13.4 9.85C13.17 9.85 12.96 9.93 12.75 10.08L9.71 13.13C9.55 13.28 9.48 13.48 9.48 13.74C9.48 13.99 9.55 14.22 9.71 14.42L14.73 19.38L9.71 24.33C9.55 24.53 9.48 24.75 9.48 24.97C9.48 25.2 9.55 25.42 9.71 25.62L12.75 28.67C12.91 28.82 13.11 28.9 13.36 28.9C13.62 28.9 13.85 28.82 14.05 28.67L19 23.64L23.95 28.67C24.15 28.82 24.37 28.9 24.6 28.9C24.83 28.9 25.04 28.82 25.25 28.67L28.29 25.62C28.45 25.47 28.52 25.27 28.52 25.01C28.52 24.76 28.45 24.53 28.29 24.33Z" />
</svg>